<?xml version="1.0" encoding="UTF-8"?>
<svg version="1.1" xmlns="http://www.w3.org/2000/svg" width="175" height="50">
<path d="M0 0 C57.75 0 115.5 0 175 0 C175 16.5 175 33 175 50 C117.25 50 59.5 50 0 50 C0 33.5 0 17 0 0 Z " fill="#1E2030" transform="translate(0,0)"/>
<path d="M0 0 C1.04607422 -0.020625 2.09214844 -0.04125 3.16992188 -0.0625 C4.18248047 -0.06765625 5.19503906 -0.0728125 6.23828125 -0.078125 C7.62527222 -0.09214355 7.62527222 -0.09214355 9.0402832 -0.10644531 C12.24845632 0.32553225 14.08434143 1.35042036 16.6875 3.25 C19.85333506 7.99875258 19.05621145 13.04076608 19.0625 18.625 C19.08699219 19.76195313 19.11148438 20.89890625 19.13671875 22.0703125 C19.16608005 30.40892102 19.16608005 30.40892102 16.8515625 34.4765625 C12.07499327 38.39093512 6.1858127 37.50838471 0.3125 37.5625 C-0.7290625 37.59150391 -1.770625 37.62050781 -2.84375 37.65039062 C-10.53700909 37.71433715 -10.53700909 37.71433715 -14.4765625 35.35546875 C-18.62963543 30.59268937 -17.57430195 24.98408733 -17.625 18.9375 C-17.65400391 17.79603516 -17.68300781 16.65457031 -17.71289062 15.47851562 C-17.77699018 7.04202759 -17.77699018 7.04202759 -15.41796875 3.01953125 C-10.78979053 -0.87019924 -5.80807102 0.02831479 0 0 Z " fill="#82ABF1" transform="translate(23.3125,6.75)"/>
<path d="M0 0 C3.3 0 6.6 0 10 0 C12.07840338 4.64176754 14.1342011 9.26826676 16 14 C16.27714844 13.07316406 16.55429688 12.14632813 16.83984375 11.19140625 C17.20207031 9.99386719 17.56429687 8.79632813 17.9375 7.5625 C18.29714844 6.36753906 18.65679687 5.17257813 19.02734375 3.94140625 C20 1 20 1 21 0 C24.3 0 27.6 0 31 0 C31 8.91 31 17.82 31 27 C28.69 27 26.38 27 24 27 C23.67 22.38 23.34 17.76 23 13 C22.360625 15.124375 21.72125 17.24875 21.0625 19.4375 C19.125 25.875 19.125 25.875 18 27 C16.02 27 14.04 27 12 27 C10.68 22.71 9.36 18.42 8 14 C7.67 18.29 7.34 22.58 7 27 C4.69 27 2.38 27 0 27 C0 18.09 0 9.18 0 0 Z " fill="#F0F1EF" transform="translate(134,11)"/>
<path d="M0 0 C4.11639609 1.77753468 6.76553623 4.11037788 9 8 C9.89144266 13.92314121 9.44144014 18.96074836 6 24 C2.08413749 27.59672834 -1.15884514 27.5562927 -6.296875 27.42578125 C-10.54100718 26.7572691 -12.17992452 25.19113804 -15 22 C-16.81563534 16.55309398 -16.932322 10.35533979 -14.8125 5 C-10.47022163 0.20852042 -6.26750122 -0.92993412 0 0 Z " fill="#F4F5F2" transform="translate(122,11)"/>
<path d="M0 0 C4.11639609 1.77753468 6.76553623 4.11037788 9 8 C9.89144266 13.92314121 9.44144014 18.96074836 6 24 C2.08413749 27.59672834 -1.15884514 27.5562927 -6.296875 27.42578125 C-10.54100718 26.7572691 -12.17992452 25.19113804 -15 22 C-16.81563534 16.55309398 -16.932322 10.35533979 -14.8125 5 C-10.47022163 0.20852042 -6.26750122 -0.92993412 0 0 Z " fill="#F4F5F2" transform="translate(94,11)"/>
<path d="M0 0 C14.19642857 -0.53571429 14.19642857 -0.53571429 17.875 1.625 C20 4 20 4 20.5625 7 C19.96866089 10.16714189 19.16255135 11.65723603 17 14 C18.32 14.66 19.64 15.32 21 16 C21.3125 19.25 21.3125 19.25 21 23 C18.90814182 25.32065517 17.23880448 26.79556324 14.08862305 27.31542969 C11.93698934 27.39333061 9.83882212 27.34919388 7.6875 27.25 C5.150625 27.1675 2.61375 27.085 0 27 C0 18.09 0 9.18 0 0 Z " fill="#F4F5F1" transform="translate(54,11)"/>
<path d="M0 0 C0.33 0 0.66 0 1 0 C1.33 6.27 1.66 12.54 2 19 C3.81298005 17.18701995 3.67555005 14.38818302 4.0625 11.9375 C4.23910156 10.83277344 4.41570313 9.72804688 4.59765625 8.58984375 C4.73042969 7.73519531 4.86320313 6.88054688 5 6 C5.33 6 5.66 6 6 6 C6.06058594 6.78246094 6.12117187 7.56492187 6.18359375 8.37109375 C6.30927734 9.88896484 6.30927734 9.88896484 6.4375 11.4375 C6.51871094 12.44683594 6.59992187 13.45617187 6.68359375 14.49609375 C6.73211468 16.93640779 6.73211468 16.93640779 8 18 C10.52596259 18.23653523 13.03107207 18.42173692 15.5625 18.5625 C16.62887695 18.62727539 16.62887695 18.62727539 17.71679688 18.69335938 C19.47761912 18.79971777 21.2387832 18.90038846 23 19 C23 15.37 23 11.74 23 8 C23.66 8.33 24.32 8.66 25 9 C24.9071875 10.3921875 24.9071875 10.3921875 24.8125 11.8125 C24.70063043 14.95454422 24.70063043 14.95454422 26.375 16.8125 C28.00086797 18.06987173 28.00086797 18.06987173 30 19 C30 14.71 30 10.42 30 6 C29.34 5.67 28.68 5.34 28 5 C28.99 5 29.98 5 31 5 C32.34410578 9.03231733 32.37764089 12.96074399 32.62109375 17.1875 C32.81786838 20.20199778 32.81786838 20.20199778 35 23 C35 15.41 35 7.82 35 0 C35.33 0 35.66 0 36 0 C36.11638426 4.06225821 36.18731373 8.1240863 36.25 12.1875 C36.30027344 13.91323242 36.30027344 13.91323242 36.3515625 15.67382812 C36.36445312 16.78564453 36.37734375 17.89746094 36.390625 19.04296875 C36.41157227 20.06414795 36.43251953 21.08532715 36.45410156 22.13745117 C35.87764322 25.77130822 34.56203669 27.40586556 32 30 C27.29577569 31.56807477 22.55255019 31.26709874 17.625 31.3125 C16.5834375 31.34150391 15.541875 31.37050781 14.46875 31.40039062 C6.77549091 31.46433715 6.77549091 31.46433715 2.8359375 29.10546875 C-0.11844871 25.7173535 -0.12000633 23.76125402 -0.09765625 19.3359375 C-0.09443359 18.21445312 -0.09121094 17.09296875 -0.08789062 15.9375 C-0.07951172 14.761875 -0.07113281 13.58625 -0.0625 12.375 C-0.05798828 11.19164062 -0.05347656 10.00828125 -0.04882812 8.7890625 C-0.03701467 5.85932493 -0.02054258 2.92968728 0 0 Z " fill="#2779E5" transform="translate(6,13)"/>
<path d="M0 0 C5.28 0 10.56 0 16 0 C17.32229189 2.64458379 17.09677194 4.67761301 17.0625 7.625 C17.05347656 8.62789062 17.04445313 9.63078125 17.03515625 10.6640625 C17.02355469 11.43492188 17.01195313 12.20578125 17 13 C14.54137599 13.05383848 12.0839245 13.09359038 9.625 13.125 C8.57699219 13.15013672 8.57699219 13.15013672 7.5078125 13.17578125 C5.67102514 13.19344267 3.83398037 13.10303261 2 13 C0 11 0 11 -0.1953125 8.3984375 C-0.13020833 5.59895833 -0.06510417 2.79947917 0 0 Z " fill="#DCE4F7" transform="translate(12,19)"/>
<path d="M0 0 C2.0946927 1.6024148 2.90054984 2.51350056 3.43359375 5.12109375 C3.44402915 11.30928798 3.44402915 11.30928798 1.3125 14.625 C-1 16 -1 16 -3.625 15.875 C-6 15 -6 15 -8 13 C-8.30078125 10.72265625 -8.30078125 10.72265625 -8.3125 8.0625 C-8.32925781 7.18722656 -8.34601563 6.31195312 -8.36328125 5.41015625 C-8 3 -8 3 -6.63671875 1.20703125 C-4.30371598 -0.51348869 -2.82828978 -0.42424347 0 0 Z " fill="#232435" transform="translate(121,17)"/>
<path d="M0 0 C2.0946927 1.6024148 2.90054984 2.51350056 3.43359375 5.12109375 C3.44402915 11.30928798 3.44402915 11.30928798 1.3125 14.625 C-1 16 -1 16 -3.625 15.875 C-6 15 -6 15 -8 13 C-8.30078125 10.72265625 -8.30078125 10.72265625 -8.3125 8.0625 C-8.32925781 7.18722656 -8.34601563 6.31195312 -8.36328125 5.41015625 C-8 3 -8 3 -6.63671875 1.20703125 C-4.30371598 -0.51348869 -2.82828978 -0.42424347 0 0 Z " fill="#232435" transform="translate(93,17)"/>
<path d="M0 0 C0.99 0 1.98 0 3 0 C3 5.28 3 10.56 3 16 C-4.88871182 17.12695883 -4.88871182 17.12695883 -8.078125 17.1328125 C-9.10679688 17.13474609 -9.10679688 17.13474609 -10.15625 17.13671875 C-10.8471875 17.13285156 -11.538125 17.12898438 -12.25 17.125 C-12.95640625 17.12886719 -13.6628125 17.13273437 -14.390625 17.13671875 C-17.52989304 17.13077317 -20.00025549 16.99991484 -23 16 C-25.19218189 11.61563621 -24.15774649 5.63098598 -23 1 C-22.67 1 -22.34 1 -22 1 C-21.93941406 1.78246094 -21.87882812 2.56492187 -21.81640625 3.37109375 C-21.73261719 4.38300781 -21.64882813 5.39492188 -21.5625 6.4375 C-21.44068359 7.95150391 -21.44068359 7.95150391 -21.31640625 9.49609375 C-21.26788532 11.93640779 -21.26788532 11.93640779 -20 13 C-17.47403741 13.23653523 -14.96892793 13.42173692 -12.4375 13.5625 C-11.72658203 13.60568359 -11.01566406 13.64886719 -10.28320312 13.69335938 C-8.52238088 13.79971777 -6.7612168 13.90038846 -5 14 C-5 10.37 -5 6.74 -5 3 C-4.34 3.33 -3.68 3.66 -3 4 C-3.0928125 5.3921875 -3.0928125 5.3921875 -3.1875 6.8125 C-3.29936957 9.95454422 -3.29936957 9.95454422 -1.625 11.8125 C0.00086797 13.06987173 0.00086797 13.06987173 2 14 C2 9.71 2 5.42 2 1 C1.34 0.67 0.68 0.34 0 0 Z " fill="#2A55A3" transform="translate(34,18)"/>
<path d="M0 0 C0 4.29 0 8.58 0 13 C-5 11 -5 11 -6 9 C-6.3125 6.0625 -6.3125 6.0625 -6 3 C-3.95959224 0.95959224 -2.91674756 0 0 0 Z " fill="#D2DAF0" transform="translate(36,19)"/>
<path d="M0 0 C0.33 0 0.66 0 1 0 C1.06058594 0.78246094 1.12117187 1.56492187 1.18359375 2.37109375 C1.26738281 3.38300781 1.35117188 4.39492188 1.4375 5.4375 C1.55931641 6.95150391 1.55931641 6.95150391 1.68359375 8.49609375 C1.73211468 10.93640779 1.73211468 10.93640779 3 12 C6.62266294 12.28528471 10.24530434 12.44912228 13.875 12.62109375 C14.90625 12.74613281 15.9375 12.87117188 17 13 C17.33 13.66 17.66 14.32 18 15 C12.06 15 6.12 15 0 15 C-2.19218189 10.61563621 -1.15774649 4.63098598 0 0 Z " fill="#3157A1" transform="translate(11,19)"/>
<path d="M0 0 C1.98 0 3.96 0 6 0 C6.33 1.65 6.66 3.3 7 5 C4.69 5.33 2.38 5.66 0 6 C0 4.02 0 2.04 0 0 Z " fill="#1D2337" transform="translate(61,27)"/>
<path d="M0 0 C1.37871915 3.82977542 0.87113444 7.07989501 0 11 C-0.99 11.66 -1.98 12.32 -3 13 C-3.08086147 11.20906809 -3.13912702 9.41710372 -3.1875 7.625 C-3.22230469 6.62726562 -3.25710937 5.62953125 -3.29296875 4.6015625 C-3.14794922 3.31378906 -3.14794922 3.31378906 -3 2 C-2.01 1.34 -1.02 0.68 0 0 Z " fill="#5194F3" transform="translate(10,20)"/>
<path d="M0 0 C0.66 0 1.32 0 2 0 C3.03590199 5.05002222 3.10251672 9.87416389 3 15 C2.01 15.495 2.01 15.495 1 16 C0.67 10.72 0.34 5.44 0 0 Z " fill="#5394F2" transform="translate(37,18)"/>
<path d="M0 0 C1.65 0 3.3 0 5 0 C5.5625 1.9375 5.5625 1.9375 6 4 C5 5 5 5 2.4375 5.0625 C1.2309375 5.0315625 1.2309375 5.0315625 0 5 C0 3.35 0 1.7 0 0 Z " fill="#1C1F31" transform="translate(61,17)"/>
<path d="M0 0 C0.66 0.33 1.32 0.66 2 1 C1.95875 1.9075 1.9175 2.815 1.875 3.75 C1.99531556 6.8782046 2.3914708 8.38614006 4 11 C2.35 11.33 0.7 11.66 -1 12 C-0.67 8.04 -0.34 4.08 0 0 Z " fill="#263B77" transform="translate(29,21)"/>
</svg>
