<?xml version="1.0" encoding="UTF-8"?>
<svg version="1.1" xmlns="http://www.w3.org/2000/svg" width="161" height="48">
<path d="M0 0 C53.13 0 106.26 0 161 0 C161 15.84 161 31.68 161 48 C107.87 48 54.74 48 0 48 C0 32.16 0 16.32 0 0 Z " fill="#1E2130" transform="translate(0,0)"/>
<path d="M0 0 C1.051875 -0.00515625 2.10375 -0.0103125 3.1875 -0.015625 C4.280625 -0.00015625 5.37375 0.0153125 6.5 0.03125 C8.1396875 0.00804687 8.1396875 0.00804687 9.8125 -0.015625 C10.864375 -0.01046875 11.91625 -0.0053125 13 0 C14.43859375 0.00676758 14.43859375 0.00676758 15.90625 0.01367188 C19.30006729 0.69090198 20.4662491 1.75608551 22.5 4.53125 C23.31537969 8.4715677 23.10291473 12.45342776 23.0625 16.46875 C23.09827148 18.09586914 23.09827148 18.09586914 23.13476562 19.75585938 C23.12609461 24.45844251 23.02132928 27.62415909 20.65234375 31.74609375 C15.96609377 34.3998933 11.79747155 34.26025795 6.5 34.15625 C5.51515625 34.17558594 4.5303125 34.19492187 3.515625 34.21484375 C-0.90064061 34.18500412 -3.76920871 33.94509339 -7.65234375 31.74609375 C-10.50992657 26.77402048 -10.18629927 22.09994392 -10.0625 16.46875 C-10.07345703 15.38013672 -10.08441406 14.29152344 -10.09570312 13.16992188 C-10.02254344 5.24428914 -10.02254344 5.24428914 -7.80834961 2.22290039 C-4.98805371 0.1560754 -3.47100563 0.01632866 0 0 Z " fill="#7EA9F4" transform="translate(15.5,8.46875)"/>
<path d="M0 0 C3.3 0 6.6 0 10 0 C11.32 3.96 12.64 7.92 14 12 C15.32 8.04 16.64 4.08 18 0 C21.3 0 24.6 0 28 0 C28 7.92 28 15.84 28 24 C26.02 24 24.04 24 22 24 C21.67 20.04 21.34 16.08 21 12 C20.525625 13.794375 20.05125 15.58875 19.5625 17.4375 C18.125 22.875 18.125 22.875 17 24 C15.00041636 24.04080783 12.99954746 24.04254356 11 24 C10.01 20.7 9.02 17.4 8 14 C7.67 17.3 7.34 20.6 7 24 C4.69 24 2.38 24 0 24 C0 16.08 0 8.16 0 0 Z " fill="#EFEFF0" transform="translate(122,13)"/>
<path d="M0 0 C5.46341463 2.92682927 5.46341463 2.92682927 7 6 C7.93762008 16.40604586 7.93762008 16.40604586 5.125 21.1875 C1.32543946 24.42830164 -1.66041547 24.33113277 -6.51953125 24.2890625 C-9.99962092 23.88350874 -11.66684061 22.55189308 -14 20 C-16.69248399 15.96127401 -16.67205444 12.74486631 -16 8 C-12.13469341 0.66924613 -7.93283784 -1.13519315 0 0 Z " fill="#F1F1F2" transform="translate(87,13)"/>
<path d="M0 0 C4.07877339 0.05826819 6.55823288 0.5276104 9.75 3.25 C12.61806426 6.71145687 13.27958436 9.75186875 13.109375 14.25390625 C12.51317469 17.56541016 10.86868967 19.70757239 8.75 22.25 C4.51032983 25.07644678 0.72913141 24.90911947 -4.25 24.25 C-7.80680172 22.14495409 -8.94468936 21.16593192 -10.25 17.25 C-11.29656026 7.59174392 -11.29656026 7.59174392 -7.8125 3.125 C-6.966875 2.50625 -6.12125 1.8875 -5.25 1.25 C-3.68966377 -0.31033623 -2.16052864 0.04292441 0 0 Z " fill="#F0F0F1" transform="translate(107.25,12.75)"/>
<path d="M0 0 C1.65 0.66 3.3 1.32 5 2 C5.13559675 4.56428515 5.23433188 7.12135216 5.3125 9.6875 C5.35439453 10.40873047 5.39628906 11.12996094 5.43945312 11.87304688 C5.52743423 15.72661934 5.2320679 17.6224567 3.16796875 20.98046875 C-1.49575671 23.95352185 -5.57948305 23.73142376 -11 23.625 C-12.47726563 23.65400391 -12.47726563 23.65400391 -13.984375 23.68359375 C-18.7252013 23.65156114 -21.23748756 23.54626353 -25.16796875 20.73046875 C-27.85065619 16.73217767 -27.39774709 14.69341565 -27 10 C-26.34 9.67 -25.68 9.34 -25 9 C-24.31527335 7.11235097 -24.31527335 7.11235097 -23.875 4.9375 C-23.70742188 4.20402344 -23.53984375 3.47054688 -23.3671875 2.71484375 C-23.24601562 2.14894531 -23.12484375 1.58304688 -23 1 C-22.67 1 -22.34 1 -22 1 C-21.67 4.63 -21.34 8.26 -21 12 C-18.70890403 12.08075665 -16.41700733 12.13907731 -14.125 12.1875 C-12.84882813 12.22230469 -11.57265625 12.25710937 -10.2578125 12.29296875 C-9.18273437 12.19628906 -8.10765625 12.09960938 -7 12 C-6.34 11.01 -5.68 10.02 -5 9 C-3.35 9.99 -1.7 10.98 0 12 C0 8.04 0 4.08 0 0 Z " fill="#217CF0" transform="translate(33,19)"/>
<path d="M0 0 C3.3125 -0.25 3.3125 -0.25 7 0 C8.9375 1.875 8.9375 1.875 10 4 C10 4.66 10 5.32 10 6 C10.66 6 11.32 6 12 6 C12.309375 5.195625 12.61875 4.39125 12.9375 3.5625 C14 1 14 1 15 0 C17.33297433 -0.04092937 19.66705225 -0.04241723 22 0 C21.65066406 0.60328125 21.30132812 1.2065625 20.94140625 1.828125 C20.48636719 2.62734375 20.03132813 3.4265625 19.5625 4.25 C19.11003906 5.03890625 18.65757813 5.8278125 18.19140625 6.640625 C16.59460806 9.68632114 16.59460806 9.68632114 16 13 C17.41078651 15.8927546 17.41078651 15.8927546 19.4375 18.75 C20.09621094 19.73484375 20.75492188 20.7196875 21.43359375 21.734375 C21.95050781 22.48203125 22.46742187 23.2296875 23 24 C17.61997406 24.44098573 17.61997406 24.44098573 15 24 C13.125 21.5 13.125 21.5 12 19 C11.34 19 10.68 19 10 19 C9.62875 19.825 9.2575 20.65 8.875 21.5 C7 24 7 24 5.02734375 24.33203125 C3.01526125 24.31428802 1.00543513 24.16437993 -1 24 C2.70588235 17.35496957 2.70588235 17.35496957 4.8125 14.8125 C6.21992769 13.10142494 6.21992769 13.10142494 5.734375 11.18359375 C4.8910512 8.67605118 3.75320703 6.54405328 2.4375 4.25 C1.98246094 3.45078125 1.52742188 2.6515625 1.05859375 1.828125 C0.70925781 1.22484375 0.35992187 0.6215625 0 0 Z " fill="#EFEFF0" transform="translate(49,13)"/>
<path d="M0 0 C1.08410156 0.00257812 2.16820312 0.00515625 3.28515625 0.0078125 C4.90744141 0.00394531 4.90744141 0.00394531 6.5625 0 C9.34765625 0.1328125 9.34765625 0.1328125 11.34765625 1.1328125 C11.34765625 5.0928125 11.34765625 9.0528125 11.34765625 13.1328125 C-0.08781812 13.50169877 -0.08781812 13.50169877 -2.5234375 11.91015625 C-3.9700846 9.63256307 -3.98966409 8.18854679 -3.90234375 5.5078125 C-3.886875 4.71117187 -3.87140625 3.91453125 -3.85546875 3.09375 C-3.53903706 0.03896716 -3.11128504 0.15579336 0 0 Z " fill="#DCE4F7" transform="translate(14.65234375,18.8671875)"/>
<path d="M0 0 C2.4375 0.75 2.4375 0.75 4.4375 2.75 C4.73828125 4.84375 4.73828125 4.84375 4.75 7.25 C4.77513672 8.44109375 4.77513672 8.44109375 4.80078125 9.65625 C4.68089844 10.3471875 4.56101562 11.038125 4.4375 11.75 C1.22941085 13.8887261 0.16051503 14.22730962 -3.5625 13.75 C-5.63608419 10.63962372 -5.85737123 9.75438748 -5.875 6.1875 C-5.89175781 5.40246094 -5.90851563 4.61742187 -5.92578125 3.80859375 C-5.80589844 3.12925781 -5.68601562 2.44992188 -5.5625 1.75 C-2.5625 -0.25 -2.5625 -0.25 0 0 Z " fill="#252836" transform="translate(83.5625,18.25)"/>
<path d="M0 0 C2.4375 0.75 2.4375 0.75 4.4375 1.75 C4.49172947 3.1870809 4.53039723 4.62475462 4.5625 6.0625 C4.58570312 6.86300781 4.60890625 7.66351563 4.6328125 8.48828125 C4.4375 10.75 4.4375 10.75 2.4375 13.75 C0.1275 13.42 -2.1825 13.09 -4.5625 12.75 C-5.7470131 9.19646071 -5.82891894 6.47986522 -5.5625 2.75 C-3.89916697 -0.051403 -3.25539733 -0.31759974 0 0 Z " fill="#222534" transform="translate(108.5625,18.25)"/>
<path d="M0 0 C1.00023193 0.00523682 2.00046387 0.01047363 3.03100586 0.01586914 C4.1105957 0.0190918 5.19018555 0.02231445 6.30249023 0.02563477 C8.00695312 0.03820313 8.00695312 0.03820313 9.74584961 0.05102539 C11.45611328 0.05779297 11.45611328 0.05779297 13.20092773 0.06469727 C16.02845312 0.07652792 18.85587601 0.09301129 21.68334961 0.11352539 C22.34334961 1.43352539 23.00334961 2.75352539 23.68334961 4.11352539 C14.11334961 4.44352539 4.54334961 4.77352539 -5.31665039 5.11352539 C-2.82920913 0.13864288 -2.82920913 0.13864288 0 0 Z " fill="#98B9FA" transform="translate(12.316650390625,8.886474609375)"/>
<path d="M0 0 C0.33 0 0.66 0 1 0 C1 4.62 1 9.24 1 14 C-4.36489595 14.90483637 -9.50317457 15.12303662 -14.9375 15.0625 C-15.71673828 15.05798828 -16.49597656 15.05347656 -17.29882812 15.04882812 C-19.19925268 15.03716908 -21.09963706 15.01923877 -23 15 C-25.13999677 10.72000646 -24.09321611 5.50951645 -23 1 C-22.67 1 -22.34 1 -22 1 C-21.67 4.63 -21.34 8.26 -21 12 C-18.70890403 12.08075665 -16.41700733 12.13907731 -14.125 12.1875 C-12.84882813 12.22230469 -11.57265625 12.25710937 -10.2578125 12.29296875 C-9.18273437 12.19628906 -8.10765625 12.09960938 -7 12 C-6.34 11.01 -5.68 10.02 -5 9 C-3.35 9.99 -1.7 10.98 0 12 C0 8.04 0 4.08 0 0 Z " fill="#1F4086" transform="translate(33,19)"/>
<path d="M0 0 C3.96 0 7.92 0 12 0 C12 1.32 12 2.64 12 4 C6.06 4.495 6.06 4.495 0 5 C0 3.35 0 1.7 0 0 Z " fill="#EDF0F7" transform="translate(12,19)"/>
<path d="M0 0 C0.99 0 1.98 0 3 0 C3 3.63 3 7.26 3 11 C-1 10 -1 10 -2 9 C-2.1875 5.5625 -2.1875 5.5625 -2 2 C-1.34 1.34 -0.68 0.68 0 0 Z " fill="#D3DCF1" transform="translate(30,20)"/>
<path d="M0 0 C0.33 0 0.66 0 1 0 C1 2.31 1 4.62 1 7 C-0.95825873 7.02694851 -2.91662226 7.04637218 -4.875 7.0625 C-5.96554688 7.07410156 -7.05609375 7.08570313 -8.1796875 7.09765625 C-11 7 -11 7 -13 6 C-13 5.34 -13 4.68 -13 4 C-7.06 3.505 -7.06 3.505 -1 3 C-0.67 2.01 -0.34 1.02 0 0 Z " fill="#B5C3E8" transform="translate(25,25)"/>
<path d="M0 0 C1.32 0.33 2.64 0.66 4 1 C4 5.62 4 10.24 4 15 C3.01 15 2.02 15 1 15 C0.67 10.05 0.34 5.1 0 0 Z " fill="#3E8CF6" transform="translate(34,20)"/>
<path d="M0 0 C0.99 0.33 1.98 0.66 3 1 C2.34 1 1.68 1 1 1 C0.67 3.64 0.34 6.28 0 9 C-0.99 9.33 -1.98 9.66 -3 10 C-3.29296875 3.9453125 -3.29296875 3.9453125 -3 2 C-2.01 1.34 -1.02 0.68 0 0 Z " fill="#5C98F2" transform="translate(9,19)"/>
<path d="M0 0 C1.98 0 3.96 0 6 0 C5.01 1.485 5.01 1.485 4 3 C3.33386665 5.27538323 3.33386665 5.27538323 2.875 7.6875 C2.70742188 8.49574219 2.53984375 9.30398437 2.3671875 10.13671875 C2.24601562 10.75160156 2.12484375 11.36648437 2 12 C1.67 12 1.34 12 1 12 C0.67 8.04 0.34 4.08 0 0 Z " fill="#687EB3" transform="translate(25,19)"/>
<path d="M0 0 C0.33 0 0.66 0 1 0 C1.06058594 0.84304687 1.12117187 1.68609375 1.18359375 2.5546875 C1.26738281 3.65039062 1.35117188 4.74609375 1.4375 5.875 C1.51871094 6.96554688 1.59992187 8.05609375 1.68359375 9.1796875 C1.83001703 11.94728971 1.83001703 11.94728971 3 14 C2.01 14 1.02 14 0 14 C-2.13999677 9.72000646 -1.09321611 4.50951645 0 0 Z " fill="#315EAE" transform="translate(10,20)"/>
<path d="M0 0 C1.125 1.75 1.125 1.75 2 4 C1.125 6.25 1.125 6.25 0 8 C-0.66 8 -1.32 8 -2 8 C-2 5.69 -2 3.38 -2 1 C-1.34 0.67 -0.68 0.34 0 0 Z " fill="#398BF8" transform="translate(8,28)"/>
<path d="M0 0 C1.32 0.33 2.64 0.66 4 1 C4 3.64 4 6.28 4 9 C3.34 9 2.68 9 2 9 C1.34 6.03 0.68 3.06 0 0 Z " fill="#5C9BF8" transform="translate(34,20)"/>
</svg>
